<?xml version="1.0" encoding="UTF-8"?><!DOCTYPE svg PUBLIC "-//W3C//DTD SVG 1.1//EN" "http://www.w3.org/Graphics/SVG/1.1/DTD/svg11.dtd"><svg xmlns="http://www.w3.org/2000/svg" xmlns:xlink="http://www.w3.org/1999/xlink"><defs><style>.cls-1{fill:#fdd9e3;}</style></defs><symbol id="close"><g fill="#FFF" fill-rule="evenodd"><path d="M5.15.908L39.093 34.85l-4.243 4.243L.91 5.15z"/><path d="M.908 34.85L34.85.907l4.243 4.243L5.15 39.09z"/></g></symbol><symbol id="cssconfeu-logo" viewBox="0 0 440 274">
    <!-- Generator: Sketch 50.2 (55047) - http://www.bohemiancoding.com/sketch -->
    <title>logo-1</title>
    <desc>Created with Sketch.</desc>
    
    <g id="logo-1" stroke="none" stroke-width="1" fill="none" fill-rule="evenodd">
        <path d="M50.43488,243.12064 L40.38944,243.12064 C39.83648,238.42048 37.07168,235.28704 30.25184,235.28704 C22.5104,235.28704 18.73184,241.64608 18.73184,248.92672 C18.73184,256.29952 22.23392,262.5664 30.89696,262.5664 C36.7952,262.5664 39.19136,259.98592 40.4816,255.6544 L50.52704,255.6544 C49.14464,264.59392 42.60128,271.50592 30.15968,271.50592 C16.15136,271.50592 8.6864,260.63104 8.6864,248.92672 C8.6864,237.31456 16.15136,226.34752 30.06752,226.34752 C44.07584,226.34752 49.78976,234.82624 50.43488,243.12064 Z M81.8307199,271.50592 C68.1910399,271.50592 59.2515199,261.09184 59.2515199,248.92672 C59.2515199,236.7616 68.1910399,226.34752 81.8307199,226.34752 C95.6547199,226.34752 104.59424,236.7616 104.59424,248.92672 C104.59424,261.09184 95.6547199,271.50592 81.8307199,271.50592 Z M81.8307199,262.5664 C89.5721599,262.5664 94.5487999,256.29952 94.5487999,248.92672 C94.5487999,241.55392 89.5721599,235.28704 81.8307199,235.28704 C74.2735999,235.28704 69.2969599,241.55392 69.2969599,248.92672 C69.2969599,256.29952 74.2735999,262.5664 81.8307199,262.5664 Z M116.36,270.4 L116.36,227.45344 L126.40544,227.45344 L126.40544,233.44384 C129.07808,228.83584 134.05472,226.34752 140.41376,226.34752 C146.58848,226.34752 150.92,228.55936 153.31616,232.1536 C155.43584,235.3792 156.08096,238.97344 156.08096,244.87168 L156.08096,270.4 L146.03552,270.4 L146.03552,248.18944 C146.03552,240.81664 143.91584,235.19488 136.72736,235.19488 C129.7232,235.19488 126.40544,240.81664 126.40544,248.18944 L126.40544,270.4 L116.36,270.4 Z M195.49472,206.44096 L195.49472,214.91968 C194.11232,214.55104 192.63776,214.27456 191.07104,214.27456 C187.9376,214.27456 184.2512,214.27456 184.2512,221.00224 L184.2512,227.45344 L195.49472,227.45344 L195.49472,235.84 L184.2512,235.84 L184.2512,270.4 L174.20576,270.4 L174.20576,235.84 L165.45056,235.84 L165.45056,227.45344 L174.20576,227.45344 L174.20576,222.10816 C174.20576,205.70368 184.712,205.33504 189.68864,205.33504 C192.26912,205.33504 194.3888,205.888 195.49472,206.44096 Z M203.758399,263.58016 C203.758399,259.43296 207.076159,256.1152 211.131199,256.1152 C215.278399,256.1152 218.596159,259.43296 218.596159,263.58016 C218.596159,267.6352 215.278399,270.95296 211.131199,270.95296 C207.076159,270.95296 203.758399,267.6352 203.758399,263.58016 Z M269.622079,215.38048 L242.987839,215.38048 L242.987839,233.62816 L269.622079,233.62816 L269.622079,243.12064 L242.987839,243.12064 L242.987839,260.90752 L269.622079,260.90752 L269.622079,270.4 L232.389439,270.4 L232.389439,205.888 L269.622079,205.888 L269.622079,215.38048 Z M283.691839,248.83456 L283.691839,205.888 L294.290239,205.888 L294.290239,248.83456 C294.290239,256.20736 299.266879,262.47424 306.823999,262.47424 C314.565439,262.47424 319.542079,256.20736 319.542079,248.83456 L319.542079,205.888 L330.140479,205.888 L330.140479,248.83456 C330.140479,261.36832 321.016639,271.96672 306.823999,271.96672 C292.907839,271.96672 283.691839,261.36832 283.691839,248.83456 Z" id="conf.EU" fill="#191919"/>
        <path d="M170.0352,118.560002 C168.191991,126.393641 165.043222,133.689568 160.5888,140.448002 C156.134378,147.206435 150.604833,153.119976 144,158.188802 C137.395167,163.257627 129.792043,167.212787 121.1904,170.054402 C112.588757,172.896016 103.372849,174.316802 93.5424,174.316802 C80.332734,174.316802 68.5056522,172.012825 58.0608,167.404802 C47.6159478,162.796778 38.7456365,156.61444 31.4496,148.857602 C24.1535635,141.100763 18.5472196,132.115253 14.6304,121.900802 C10.7135804,111.68635 8.7552,100.896058 8.7552,89.5296015 C8.7552,78.623947 10.6367812,68.1024522 14.4,57.9648015 C18.1632188,47.8271508 23.6159643,38.8416407 30.7584,31.0080015 C37.9008357,23.1743624 46.5023497,16.9152249 56.5632,12.2304015 C66.6240503,7.5455781 78.0287363,5.20320153 90.7776,5.20320153 C102.75846,5.20320153 113.395154,6.85438501 122.688,10.1568015 C131.980846,13.459218 139.929567,17.9135735 146.5344,23.5200015 C153.139233,29.1264296 158.39998,35.7311635 162.3168,43.3344015 C166.23362,50.9376395 168.806394,59.1167577 170.0352,67.8720015 L142.1568,67.8720015 C141.235195,62.3423739 139.430413,57.1968253 136.7424,52.4352015 C134.054387,47.6735777 130.67522,43.5648188 126.6048,40.1088015 C122.53438,36.6527842 117.772827,33.9264115 112.32,31.9296015 C106.867173,29.9327915 100.838433,28.9344015 94.2336,28.9344015 C85.0175539,28.9344015 76.7616365,30.6239846 69.4656,34.0032015 C62.1695635,37.3824184 56.0640246,41.8751735 51.1488,47.4816015 C46.2335754,53.0880296 42.4704131,59.539165 39.8592,66.8352015 C37.2479869,74.131238 35.9424,81.6959624 35.9424,89.5296015 C35.9424,97.824043 37.2863866,105.657565 39.9744,113.030402 C42.6624134,120.403238 46.5791743,126.892773 51.7248,132.499202 C56.8704257,138.10563 63.244762,142.521585 70.848,145.747202 C78.451238,148.972818 87.1679508,150.585602 96.9984,150.585602 C101.606423,150.585602 106.252777,149.77921 110.9376,148.166402 C115.622423,146.553593 119.96158,144.326416 123.9552,141.484802 C127.94882,138.643187 131.443185,135.264021 134.4384,131.347202 C137.433615,127.430382 139.622393,123.168025 141.0048,118.560002 L170.0352,118.560002 Z M218.572801,117.638402 C218.572801,128.236855 221.491171,136.377573 227.328001,142.060802 C233.16483,147.74403 240.691154,150.585602 249.907201,150.585602 C253.593619,150.585602 257.049584,150.009607 260.275201,148.857602 C263.500817,147.705596 266.303989,146.092812 268.684801,144.019202 C271.065612,141.945591 272.947194,139.449616 274.329601,136.531202 C275.712007,133.612787 276.403201,130.31042 276.403201,126.624002 C276.403201,122.476781 275.596809,119.020815 273.984001,116.256002 C272.371192,113.491188 270.297613,111.148811 267.763201,109.228802 C265.228788,107.308792 262.464016,105.696008 259.468801,104.390402 C256.473586,103.084795 253.593614,101.971206 250.828801,101.049602 C243.455964,98.4383885 236.544033,95.788815 230.092801,93.1008015 C223.641568,90.4127881 217.996825,87.1872203 213.158401,83.4240015 C208.319976,79.6607827 204.518414,75.0912284 201.753601,69.7152015 C198.988787,64.3391746 197.606401,57.5808422 197.606401,49.4400015 C197.606401,42.8351685 198.950387,36.8064288 201.638401,31.3536015 C204.326414,25.9007743 207.935978,21.2160211 212.467201,17.2992015 C216.998423,13.3823819 222.29757,10.3872119 228.364801,8.31360153 C234.432031,6.23999116 240.844767,5.20320153 247.603201,5.20320153 C254.822437,5.20320153 261.580769,6.43198924 267.878401,8.88960153 C274.176032,11.3472138 279.628777,14.8031793 284.236801,19.2576015 C288.844824,23.7120238 292.454387,29.0111708 295.065601,35.1552015 C297.676814,41.2992322 298.982401,48.1343639 298.982401,55.6608015 L272.486401,55.6608015 C272.486401,47.6735616 270.336022,41.2224261 266.035201,36.3072015 C261.734379,31.3919769 255.820838,28.9344015 248.294401,28.9344015 C241.689568,28.9344015 236.006424,30.6239846 231.244801,34.0032015 C226.483177,37.3824184 224.102401,42.527967 224.102401,49.4400015 C224.102401,52.6656177 224.755194,55.5455889 226.060801,58.0800015 C227.366407,60.6144142 229.132789,62.8031923 231.360001,64.6464015 C233.587212,66.4896107 236.083187,68.1023946 238.848001,69.4848015 C241.612814,70.8672084 244.531185,72.0959961 247.603201,73.1712015 C253.900832,75.475213 260.313568,77.9327885 266.841601,80.5440015 C273.369633,83.1552146 279.321574,86.3807823 284.697601,90.2208015 C290.073627,94.0608207 294.451184,98.6687746 297.830401,104.044802 C301.209617,109.420828 302.899201,115.948763 302.899201,123.628802 C302.899201,131.923243 301.440015,139.21917 298.521601,145.516802 C295.603186,151.814433 291.609626,157.11358 286.540801,161.414402 C281.471975,165.715223 275.596834,168.940791 268.915201,171.091202 C262.233567,173.241612 255.129638,174.316802 247.603201,174.316802 C240.230364,174.316802 233.203234,173.049614 226.521601,170.515202 C219.839967,167.980789 213.964826,164.294426 208.896001,159.456002 C203.827175,154.617577 199.756816,148.704036 196.684801,141.715202 C193.612785,134.726367 192.076801,126.700847 192.076801,117.638402 L218.572801,117.638402 Z M353.510401,117.638402 C353.510401,128.236855 356.428772,136.377573 362.265601,142.060802 C368.10243,147.74403 375.628755,150.585602 384.844801,150.585602 C388.53122,150.585602 391.987185,150.009607 395.212801,148.857602 C398.438417,147.705596 401.241589,146.092812 403.622401,144.019202 C406.003213,141.945591 407.884794,139.449616 409.267201,136.531202 C410.649608,133.612787 411.340801,130.31042 411.340801,126.624002 C411.340801,122.476781 410.534409,119.020815 408.921601,116.256002 C407.308793,113.491188 405.235214,111.148811 402.700801,109.228802 C400.166388,107.308792 397.401616,105.696008 394.406401,104.390402 C391.411186,103.084795 388.531215,101.971206 385.766401,101.049602 C378.393564,98.4383885 371.481633,95.788815 365.030401,93.1008015 C358.579169,90.4127881 352.934425,87.1872203 348.096001,83.4240015 C343.257577,79.6607827 339.456015,75.0912284 336.691201,69.7152015 C333.926387,64.3391746 332.544001,57.5808422 332.544001,49.4400015 C332.544001,42.8351685 333.887988,36.8064288 336.576001,31.3536015 C339.264015,25.9007743 342.873578,21.2160211 347.404801,17.2992015 C351.936024,13.3823819 357.235171,10.3872119 363.302401,8.31360153 C369.369631,6.23999116 375.782367,5.20320153 382.540801,5.20320153 C389.760037,5.20320153 396.51837,6.43198924 402.816001,8.88960153 C409.113633,11.3472138 414.566378,14.8031793 419.174401,19.2576015 C423.782424,23.7120238 427.391988,29.0111708 430.003201,35.1552015 C432.614414,41.2992322 433.920001,48.1343639 433.920001,55.6608015 L407.424001,55.6608015 C407.424001,47.6735616 405.273623,41.2224261 400.972801,36.3072015 C396.67198,31.3919769 390.758439,28.9344015 383.232001,28.9344015 C376.627168,28.9344015 370.944025,30.6239846 366.182401,34.0032015 C361.420777,37.3824184 359.040001,42.527967 359.040001,49.4400015 C359.040001,52.6656177 359.692795,55.5455889 360.998401,58.0800015 C362.304008,60.6144142 364.07039,62.8031923 366.297601,64.6464015 C368.524812,66.4896107 371.020787,68.1023946 373.785601,69.4848015 C376.550415,70.8672084 379.468786,72.0959961 382.540801,73.1712015 C388.838433,75.475213 395.251168,77.9327885 401.779201,80.5440015 C408.307234,83.1552146 414.259174,86.3807823 419.635201,90.2208015 C425.011228,94.0608207 429.388784,98.6687746 432.768001,104.044802 C436.147218,109.420828 437.836801,115.948763 437.836801,123.628802 C437.836801,131.923243 436.377616,139.21917 433.459201,145.516802 C430.540786,151.814433 426.547226,157.11358 421.478401,161.414402 C416.409576,165.715223 410.534434,168.940791 403.852801,171.091202 C397.171168,173.241612 390.067239,174.316802 382.540801,174.316802 C375.167964,174.316802 368.140834,173.049614 361.459201,170.515202 C354.777568,167.980789 348.902426,164.294426 343.833601,159.456002 C338.764776,154.617577 334.694416,148.704036 331.622401,141.715202 C328.550386,134.726367 327.014401,126.700847 327.014401,117.638402 L353.510401,117.638402 Z" id="CSS" fill="#191919"/>
    </g>
</symbol><symbol id="globe" viewBox="0 0 143.8 143.7">
<g>
  <path fill="#FBC227" d="M27.2,87.4c5.7,0,10.4-2.3,14.1-6.8l7.5,7.7c-6,6.7-13,10-21,10c-8.1,0-14.7-2.5-20-7.6C2.6,85.6,0,79.2,0,71.4
  s2.7-14.3,8-19.5s11.8-7.8,19.5-7.8c8.6,0,15.8,3.3,21.6,9.8l-7.3,8.2c-3.7-4.6-8.3-6.9-13.8-6.9c-4.4,0-8.2,1.4-11.3,4.3
  S12,66.3,12,71.1s1.5,8.8,4.4,11.7C19.5,86,23,87.4,27.2,87.4L27.2,87.4z"/>
  <path fill="#FBC227" d="M70.3,55.8c-1.1,0.9-1.7,2.2-1.7,3.7s0.7,2.7,2.1,3.6c1.4,0.9,4.5,2,9.5,3.2s8.8,3.1,11.6,5.5c2.7,2.5,4.1,6,4.1,10.7
  s-1.8,8.5-5.3,11.4s-8.2,4.4-13.9,4.4c-8.3,0-15.8-3.1-22.4-9.2l7-8.5c5.6,5,10.9,7.4,15.7,7.4c2.1,0,3.8-0.5,5.1-1.4
  c1.2-0.9,1.8-2.2,1.8-3.8s-0.7-2.8-2-3.8c-1.3-0.9-3.9-1.9-7.7-2.8c-6.1-1.4-10.6-3.3-13.4-5.7c-2.8-2.3-4.2-6-4.2-11
  S58.4,50.7,62,48c3.6-2.7,8-4,13.4-4c3.5,0,7,0.6,10.5,1.8c3.5,1.2,6.5,2.9,9.1,5.1l-5.9,8.5c-4.5-3.5-9.3-5.2-14.1-5.2
  C73,54.4,71.4,54.9,70.3,55.8z M118.2,55.8c-1.1,0.9-1.7,2.2-1.7,3.7s0.7,2.7,2.1,3.6c1.4,0.9,4.5,2,9.5,3.2s8.8,3.1,11.6,5.5
  c2.7,2.5,4.1,6,4.1,10.7s-1.8,8.5-5.3,11.4s-8.2,4.4-13.9,4.4c-8.3,0-15.8-3.1-22.4-9.2l7-8.5c5.6,5,10.9,7.4,15.7,7.4
  c2.1,0,3.8-0.5,5.1-1.4c1.2-0.9,1.8-2.2,1.8-3.8s-0.7-2.8-2-3.8c-1.3-0.9-3.9-1.9-7.7-2.8c-6.1-1.4-10.6-3.3-13.4-5.7
  c-2.8-2.3-4.2-6-4.2-11s1.8-8.8,5.4-11.5c3.6-2.7,8-4,13.4-4c3.5,0,7,0.6,10.5,1.8c3.5,1.2,6.5,2.9,9.1,5.1l-5.9,8.5
  c-4.5-3.5-9.3-5.2-14.1-5.2C120.8,54.4,119.3,54.9,118.2,55.8L118.2,55.8z"/>
</g>
<g>
  <path fill="hsl(0, 0%, 7%)" d="M23.5,37.3c2.2-3,4.7-6.5,7.6-9.3c5.1-5,10.8-9.1,17.2-12.1c-4.4,5.9-8.1,13.4-10.9,21.4h10.2c1.5-4,3.3-7.8,5.3-11.1
  c3.2-5.4,7.1-9.8,11.1-12.6c2.1-1.5,4.6-2.6,6.6-3.3v27h9v-27c3,0.6,4.6,1.7,6.7,3.2c4,2.8,7.9,7.2,11.1,12.6
  c2,3.3,3.9,7.1,5.4,11.1H113c-2.8-8-6.4-15.6-10.9-21.5c6.4,3.1,12.2,7.2,17.2,12.2c2.8,2.8,5.4,6.2,7.6,9.2h11.3
  C125.9,15.1,102.3,0,75.2,0s-50.7,15.1-63,37.1h11.3V37.3z"/>
  <path fill="hsl(0, 0%, 7%)" d="M126.5,107.3c-2.1,3-4.4,6-7.1,8.7c-5.1,5-10.8,9-17.2,12.1c4.3-5.7,7.9-12.7,10.6-20.7h-10.2c-1.4,4-3.1,7.4-5,10.5
  c-3.2,5.4-7.3,9.8-11.2,12.6c-2.1,1.5-3.7,2.7-6.7,3.3v-26.5h-9v26.5c-2-0.6-4.5-1.7-6.6-3.2c-4-2.8-7.9-7.4-11.1-12.8
  c-1.9-3.1-3.6-6.5-5-10.5H37.7c2.7,8,6.3,15.2,10.6,20.9c-6.4-3.1-12.2-7.3-17.2-12.3c-2.6-2.6-5-5.5-7.1-8.5H12.7
  c12.4,22,35.8,36.3,62.5,36.3s50.1-14.3,62.5-36.3h-11.2V107.3z"/>
</g>
</symbol><symbol id="hamburger"><path d="M0 12h48v6H0zm0 12h48v6H0zM0 0h48v6H0z" fill="#FFF" fill-rule="evenodd"/></symbol><symbol id="index-arrow" viewBox="0 0 1430 321"><title>arrow</title><polygon class="cls-1" points="1430 160.5 1192 0 1192 100 0 100 0 221 1192 221 1192 321 1430 160.5"/></symbol></svg>