<?xml version="1.0" encoding="utf-8"?>
<!-- Generator: Adobe Illustrator 22.1.0, SVG Export Plug-In . SVG Version: 6.00 Build 0)  -->
<svg version="1.1" id="Ebene_1" xmlns="http://www.w3.org/2000/svg" xmlns:xlink="http://www.w3.org/1999/xlink" x="0px" y="0px"
	 viewBox="0 0 600 400" style="enable-background:new 0 0 600 400;" xml:space="preserve">
<style type="text/css">
	.st0{fill:#010101;}
	.st1{fill:#020202;}
	.st2{fill:#FEBC01;}
</style>
<title>united-internet</title>
<g>
	<path class="st0" d="M133.4,239.7c3.2-2.5,6.1-4.7,9.1-7c2.3,2.3,5,4,8.1,4.9c8.2,2.4,17.8,0.2,22.7-7.4c5.3-8.1,4.5-20.6-1.9-27.7
		c-2.9-3.2-6.5-5-10.7-5.6c-6.5-1-12.6,0.1-17.4,4.9c-2.5,2.5-4.5,5.5-6.2,8.6c-3.1,5.6-6.1,11.4-8.7,17.3c-4.5,9.8-12,16.1-22,19.7
		c-25.2,8.9-52.8-4.3-60.2-31.1c-4.7-17.2-1.3-33.1,10.6-46.7c6.2-7.1,14.3-11.2,23.5-13.1c10.5-2.2,20.6-1.3,30.4,3.2
		c4.8,2.2,8.9,5.5,12.2,9.8c-3.4,2.6-6.8,5.2-10,7.6c-2-1.7-3.8-3.7-5.9-5.1c-6.4-4.4-13.6-5.9-21.2-4.7
		c-14.9,2.5-23.6,11.8-27.2,26c-2.8,10.7-1.6,21.2,4.5,30.7c5.4,8.6,13.4,13.3,23.5,14.4c6.9,0.8,13.4-0.2,19.5-3.8
		c5-3,8.9-6.9,11.7-12.1c2.9-5.6,5.9-11.2,8.9-16.8c3.1-5.6,7-10.6,12.3-14.3c12-8.5,30-6.9,40.5,3.5c6.3,6.2,9.6,13.7,9.7,22.6
		c0.1,16.4-11.7,29.1-26.6,31.5c-10.6,1.7-20-1.1-28-8.4C134.2,240.2,133.9,240,133.4,239.7z"/>
	<path class="st1" d="M402.6,230.3c3,2.3,5.8,4.4,8.7,6.7c-3.4,4.4-7.5,7.7-12.5,9.7c-8.4,3.3-17.1,3.7-25.6,0.8
		c-8.2-2.8-14-8.3-17.1-16.3c-4.1-10.6-3.7-21.1,2.3-31c5.1-8.3,12.7-12.9,22.3-14c5.9-0.7,11.7-0.3,17.1,2.3
		c8.3,3.9,13.2,10.7,15.3,19.5c1.1,4.5,1.3,9.1,1.1,13.9c-16.1,0-32.2,0-48.3,0c0,2.3,0.4,4.4,1.4,6.4c3,6.2,8.2,9.4,14.7,10.7
		c8.4,1.7,14.8-1.6,20.1-7.8C402.1,230.9,402.3,230.7,402.6,230.3z M401.9,212.6c-0.1-1.2-0.2-2.4-0.4-3.6c-0.9-5-3.1-9.1-7.7-11.6
		c-7.7-4.2-18.9-2.8-24.9,6c-1.9,2.8-3,5.8-3.1,9.2C377.8,212.6,389.8,212.6,401.9,212.6z"/>
	<path class="st1" d="M517.7,230.3c2.9,2.3,5.8,4.4,8.7,6.7c-2.5,3.3-5.4,5.9-8.9,8c-4.9,2.9-10.2,4.1-15.7,4.4
		c-6.9,0.3-13.4-0.9-19.4-4.6c-7-4.4-11.1-10.8-12.9-18.7c-2-9.1-1.1-18,4-26c6.3-9.8,15.6-14.2,27.1-14.1c7.2,0.1,13.7,2.2,19,7.1
		c4.8,4.4,7.4,9.9,8.7,16.2c0.8,4,0.9,8.1,0.9,12.2c0,0.2-0.1,0.3-0.1,0.5c-16.1,0-32.1,0-48.3,0c0.1,5.2,2.1,9.4,6.1,12.4
		c6.6,5.2,14,6.7,21.9,3.4c3.3-1.4,5.9-3.9,8.2-6.6C517.2,230.9,517.4,230.6,517.7,230.3z M480.9,212.6c12,0,24,0,36,0
		c0-0.3,0-0.5,0-0.7c-0.1-0.8-0.1-1.6-0.2-2.4c-0.9-5.9-3.7-10.5-9.4-12.9c-3.3-1.4-6.8-1.6-10.3-1.3
		C488.4,196.2,481.1,204,480.9,212.6z"/>
	<path class="st0" d="M210.6,247.8c-3.9,0-7.6,0-11.4,0c0-20.1,0-40.2,0-60.3c3.8,0,7.5,0,11.4,0c0,3,0,6,0,9.4
		c0.8-1.3,1.4-2.3,2.2-3.3c2.8-3.5,6.6-5.7,10.9-6.8c5.2-1.4,10.5-1.3,15.6,0.5c7.4,2.6,11.4,8,12.9,15.5c0.4,2,0.5,4.1,0.5,6.2
		c0,12.9,0,25.8,0,38.8c-3.8,0-7.6,0-11.5,0c0-0.4,0-0.8,0-1.2c0-11.5,0-23.1,0-34.6c0-2-0.3-4.1-0.8-6c-1.5-5.1-4.9-8.2-10.3-9
		c-6.9-0.9-13.5,1.3-16.9,8c-1.3,2.5-2.1,5.2-2.2,8c-0.2,3.1-0.2,6.3-0.2,9.5C210.6,230.9,210.6,239.3,210.6,247.8z"/>
	<path class="st0" d="M285.8,248c-3.9,0-7.7,0-11.6,0c0-16.8,0-33.6,0-50.5c-4.4,0-8.6,0-12.9,0c0-3.4,0-6.6,0-10
		c4.2,0,8.5,0,12.9,0c0-0.6,0-1,0-1.4c0-5.3-0.1-10.6,0.2-15.8c0.2-3.1,0.9-6.3,1.8-9.3c2-6.3,6.7-9.7,13.1-10.5
		c3.4-0.4,6.8-0.4,10.3-0.6c0,3.7,0,7,0,10.2c-1.6,0-3.2,0-4.7,0c-5.3,0.2-8.4,2.9-8.8,8.2c-0.4,6.4-0.4,12.8-0.5,19.2
		c4.8,0,9.4,0,14,0c0,3.4,0,6.6,0,10c-4.6,0-9.2,0-13.9,0C285.8,214.4,285.8,231.2,285.8,248z"/>
	<path class="st0" d="M323.7,247.8c-3.8,0-7.6,0-11.4,0c0-20.1,0-40.2,0-60.3c3.8,0,7.5,0,11.4,0c0,3,0,6.1,0,9.5
		c0.4-0.6,0.6-0.9,0.7-1.2c4-7.1,13.8-11.3,21.6-9.4c0.9,0.2,1.1,0.6,1,1.5c-0.2,3.5-0.3,6.9-0.4,10.4c0,0.2,0,0.5-0.1,0.8
		c-0.8-0.2-1.6-0.4-2.4-0.5c-5.2-0.9-10.2-0.2-14.6,3c-3.7,2.8-5.1,6.9-5.7,11.4c-0.2,1.6-0.3,3.2-0.3,4.8c0,9.9,0,19.8,0,29.7
		C323.8,247.5,323.7,247.6,323.7,247.8z"/>
	<path class="st0" d="M439.3,247.8c-3.5,0-6.9,0-10.3,0c-0.4,0-0.7,0-1.1,0c0-20.1,0-40.2,0-60.4c3.8,0,7.5,0,11.4,0c0,3,0,6,0,9.2
		c5.6-8.7,13.4-12,23.5-10.2c-0.2,4.3-0.3,8.4-0.5,12.6c-2.9-0.8-5.7-1.1-8.6-0.7c-7.7,0.9-12.5,5.4-13.8,13c-0.3,2-0.5,4-0.5,6
		c-0.1,9.7,0,19.3,0,29C439.3,246.8,439.3,247.3,439.3,247.8z"/>
	<path class="st2" d="M547.4,248.6c-4.7,0-8.4-3.8-8.4-8.5c0-4.7,3.8-8.4,8.7-8.3c4.5,0,8.2,3.9,8.2,8.4
		C555.9,244.8,552.1,248.6,547.4,248.6z"/>
</g>
</svg>
