<svg id="Ebene_1" data-name="Ebene 1" xmlns="http://www.w3.org/2000/svg" xmlns:xlink="http://www.w3.org/1999/xlink" viewBox="0 0 600 400"><defs><style>.cls-1{fill:#575786;}.cls-2{fill:url(#linear-gradient);}</style><linearGradient id="linear-gradient" x1="-302.167" y1="-2391.407" x2="-303.258" y2="-2392.3" gradientTransform="matrix(75.156, 0, 0, -71.144, 23222.699, -169962.91)" gradientUnits="userSpaceOnUse"><stop offset="0" stop-color="#ffd427"/><stop offset="1" stop-color="#fc9301"/></linearGradient></defs><title>talent.io</title><g id="Logos"><g id="Rectangle-Blanc"><g id="bleu"><path id="talent.io" class="cls-1" d="M96.53,243.008a22.634,22.634,0,0,0,10.869-2.571v-7.714a18.914,18.914,0,0,1-8.765,2.1c-6.077,0-10.168-2.688-10.168-10.051V189.482h19.167v-7.947H88.466V163.3h-9v18.232H71.053v7.947h8.414v36.463c0,12.271,7.363,17.063,17.063,17.063Zm45,.234c10.635,0,17.647-4.909,21.855-10.4v9.116h8.648V205.025c0-7.713-2.1-13.556-6.194-17.647-4.441-4.441-10.986-6.661-19.517-6.661a49.89,49.89,0,0,0-21.972,5.025l2.688,7.363c5.61-2.571,11.22-4.441,18.349-4.441,11.336,0,18,5.609,18,16.478v2.1a64.169,64.169,0,0,0-18.583-2.571c-15.31,0-25.828,6.778-25.828,19.517v.234c0,12.388,11.336,18.816,22.556,18.816Zm1.753-7.129c-8.181,0-15.193-4.441-15.193-12.038v-.234c0-7.6,6.311-12.5,17.647-12.5a63.045,63.045,0,0,1,17.764,2.571v5.844c0,9.583-9.115,16.362-20.218,16.362Zm48.735,5.843h9V156.641h-9Zm56.331,1.4c11.453,0,18.816-4.558,24.893-11.337L267.627,227c-4.908,5.142-10.752,8.531-19.05,8.531-10.752,0-19.984-7.362-21.27-20.452h47.917a23.448,23.448,0,0,0,.117-2.922c0-17.647-10.285-31.9-28.166-31.9-16.712,0-28.984,14.024-28.984,31.438v.234c0,18.7,13.557,31.438,30.153,31.438Zm-21.037-34.944c1.169-11.8,9.116-20.569,19.634-20.569,12.038,0,18.349,9.583,19.284,20.569Zm63.811,33.541h9V207.363c0-11.337,7.713-18.933,18.115-18.933,10.635,0,16.712,7.012,16.712,18.232v35.294h9V204.441c0-14.375-8.532-24.192-23.14-24.192-10.4,0-16.713,5.259-20.686,11.8V181.535h-9Zm92.21,1.052a22.637,22.637,0,0,0,10.869-2.571v-7.714a18.917,18.917,0,0,1-8.765,2.1c-6.078,0-10.168-2.688-10.168-10.051V189.482h19.167v-7.947H375.264V163.3h-9v18.232H357.85v7.947h8.415v36.463c0,12.271,7.363,17.063,17.063,17.063Zm25.945-1.052h10.752V229.685H409.273Z"/><path id="Combined-Shape" class="cls-2" d="M497.276,243.359a30.953,30.953,0,0,1-31.321-31.321V211.8a31.5,31.5,0,0,1,62.992-.234v.234A31.373,31.373,0,0,1,497.276,243.359Zm.233-8.064c13.09,0,22.206-10.519,22.206-23.257V211.8c0-12.973-9.7-23.608-22.439-23.608-13.09,0-22.089,10.635-22.089,23.374v.234C475.187,224.776,484.771,235.3,497.509,235.3Zm-57.733,6.661V181.535h9v60.421Zm-.584-73.628v-9.934h10.284v9.934Z"/></g></g></g></svg>