<?xml version="1.0" encoding="utf-8"?>
<svg class="c-globe__globe-svg" xmlns="http://www.w3.org/2000/svg" xmlns:xlink="http://www.w3.org/1999/xlink" x="0px" y="0px"
   viewBox="0 0 143.8 143.7" style="enable-background:new 0 0 143.8 143.7;" xml:space="preserve">
<g>
  <path fill="#FBC227" d="M27.2,87.4c5.7,0,10.4-2.3,14.1-6.8l7.5,7.7c-6,6.7-13,10-21,10c-8.1,0-14.7-2.5-20-7.6C2.6,85.6,0,79.2,0,71.4
  s2.7-14.3,8-19.5s11.8-7.8,19.5-7.8c8.6,0,15.8,3.3,21.6,9.8l-7.3,8.2c-3.7-4.6-8.3-6.9-13.8-6.9c-4.4,0-8.2,1.4-11.3,4.3
  S12,66.3,12,71.1s1.5,8.8,4.4,11.7C19.5,86,23,87.4,27.2,87.4L27.2,87.4z"/>
  <path fill="#FBC227" d="M70.3,55.8c-1.1,0.9-1.7,2.2-1.7,3.7s0.7,2.7,2.1,3.6c1.4,0.9,4.5,2,9.5,3.2s8.8,3.1,11.6,5.5c2.7,2.5,4.1,6,4.1,10.7
  s-1.8,8.5-5.3,11.4s-8.2,4.4-13.9,4.4c-8.3,0-15.8-3.1-22.4-9.2l7-8.5c5.6,5,10.9,7.4,15.7,7.4c2.1,0,3.8-0.5,5.1-1.4
  c1.2-0.9,1.8-2.2,1.8-3.8s-0.7-2.8-2-3.8c-1.3-0.9-3.9-1.9-7.7-2.8c-6.1-1.4-10.6-3.3-13.4-5.7c-2.8-2.3-4.2-6-4.2-11
  S58.4,50.7,62,48c3.6-2.7,8-4,13.4-4c3.5,0,7,0.6,10.5,1.8c3.5,1.2,6.5,2.9,9.1,5.1l-5.9,8.5c-4.5-3.5-9.3-5.2-14.1-5.2
  C73,54.4,71.4,54.9,70.3,55.8z M118.2,55.8c-1.1,0.9-1.7,2.2-1.7,3.7s0.7,2.7,2.1,3.6c1.4,0.9,4.5,2,9.5,3.2s8.8,3.1,11.6,5.5
  c2.7,2.5,4.1,6,4.1,10.7s-1.8,8.5-5.3,11.4s-8.2,4.4-13.9,4.4c-8.3,0-15.8-3.1-22.4-9.2l7-8.5c5.6,5,10.9,7.4,15.7,7.4
  c2.1,0,3.8-0.5,5.1-1.4c1.2-0.9,1.8-2.2,1.8-3.8s-0.7-2.8-2-3.8c-1.3-0.9-3.9-1.9-7.7-2.8c-6.1-1.4-10.6-3.3-13.4-5.7
  c-2.8-2.3-4.2-6-4.2-11s1.8-8.8,5.4-11.5c3.6-2.7,8-4,13.4-4c3.5,0,7,0.6,10.5,1.8c3.5,1.2,6.5,2.9,9.1,5.1l-5.9,8.5
  c-4.5-3.5-9.3-5.2-14.1-5.2C120.8,54.4,119.3,54.9,118.2,55.8L118.2,55.8z"/>
</g>
<g>
  <path fill="hsl(0, 0%, 7%)" d="M23.5,37.3c2.2-3,4.7-6.5,7.6-9.3c5.1-5,10.8-9.1,17.2-12.1c-4.4,5.9-8.1,13.4-10.9,21.4h10.2c1.5-4,3.3-7.8,5.3-11.1
  c3.2-5.4,7.1-9.8,11.1-12.6c2.1-1.5,4.6-2.6,6.6-3.3v27h9v-27c3,0.6,4.6,1.7,6.7,3.2c4,2.8,7.9,7.2,11.1,12.6
  c2,3.3,3.9,7.1,5.4,11.1H113c-2.8-8-6.4-15.6-10.9-21.5c6.4,3.1,12.2,7.2,17.2,12.2c2.8,2.8,5.4,6.2,7.6,9.2h11.3
  C125.9,15.1,102.3,0,75.2,0s-50.7,15.1-63,37.1h11.3V37.3z"/>
  <path fill="hsl(0, 0%, 7%)" d="M126.5,107.3c-2.1,3-4.4,6-7.1,8.7c-5.1,5-10.8,9-17.2,12.1c4.3-5.7,7.9-12.7,10.6-20.7h-10.2c-1.4,4-3.1,7.4-5,10.5
  c-3.2,5.4-7.3,9.8-11.2,12.6c-2.1,1.5-3.7,2.7-6.7,3.3v-26.5h-9v26.5c-2-0.6-4.5-1.7-6.6-3.2c-4-2.8-7.9-7.4-11.1-12.8
  c-1.9-3.1-3.6-6.5-5-10.5H37.7c2.7,8,6.3,15.2,10.6,20.9c-6.4-3.1-12.2-7.3-17.2-12.3c-2.6-2.6-5-5.5-7.1-8.5H12.7
  c12.4,22,35.8,36.3,62.5,36.3s50.1-14.3,62.5-36.3h-11.2V107.3z"/>
</g>
</svg>
