<svg id="cssconf-eu-logo" xmlns="http://www.w3.org/2000/svg" viewBox="0 0 480 240"><defs><style>.cls-1{fill:none;clip-rule:evenodd}.cls-2{fill:#21303b}.cls-3{clip-path:url(#clip-path)}.cls-4{fill:#fff}.cls-5{fill:#42cdb2}.cls-6{fill:#3ec446}.cls-7{clip-path:url(#clip-path-2)}.cls-8{fill:#2176ff}.cls-9{clip-path:url(#clip-path-3)}.cls-10{fill:#ea3a3a}.cls-11{fill:#fbc227}</style><clipPath id="clip-path"><path class="cls-1" d="M243.36 103.13c26.35 6.76 31.75 11.26 31.75 20v.45c0 9.23-8.56 14.86-22.75 14.86-18 0-32.88-7.43-47.07-19.14L195 131.68c15 11.23 34.95 22.23 55.81 22.14 42.49-.18 41.54-26.36 41.54-32.14 0-22.34-21.24-29.44-40.55-33.84-24.63-4.7-44.59-13.45-44.19-35.2s21.15-34 39.55-33.88c14.58.08 25.49 2.87 48.91 16.46l8.77-12.72c-16-12.84-35.58-20-58.55-20-32.2 0-55.18 23.42-55.18 52v.45c0 31.3 20.49 40.09 52.25 48.19"/></clipPath><clipPath id="clip-path-2"><path class="cls-1" d="M25.49 145.69q-24-23.89-24-59.85.11-35.19 24.06-59.19t59.35-24q35.75 0 61.36 22.27L124 49.31A61.58 61.58 0 0 0 84.9 36q-22.5.11-36.25 14T34.9 85.62q.11 23.28 13.92 37t36.3 13.7q22.49 0 38.86-13.25l22.27 24.39q-25.5 22.27-61.36 22.27-35.41-.11-59.41-24"/></clipPath><clipPath id="clip-path-3"><path class="cls-1" d="M412.22 103.13C438.59 109.9 444 114.4 444 123.19v.45c0 9.24-8.57 14.88-22.76 14.88-18 0-32.91-7.44-47.11-19.16l-10.31 12.35c15 11.23 35 22.24 55.84 22.16 42.51-.19 41.56-26.38 41.56-32.16 0-22.36-21.26-29.46-40.58-33.86C396 83.13 376 74.38 376.43 52.61S397.6 18.6 416 18.7c10.83.06 19.65 1.62 33.06 8l10.1-13.79a93.2 93.2 0 0 0-44.01-10.53c-32.23 0-55.22 23.44-55.22 52.07v.45c0 31.33 20.51 40.12 52.29 48.23"/></clipPath></defs><title>cssconf-eu-logo</title><path class="cls-2" d="M149.87 209a9.59 9.59 0 0 1 9.93 8h5.78c-1.05-7.21-6.49-13-16.43-13-10.5 0-17 8.4-17 17.48 0 9.41 6.64 17.57 17.57 17.57 8.21 0 14.37-5.06 15.85-11.56h-6a9.87 9.87 0 0 1-9.12 6.64c-8.12 0-12.65-5.78-12.65-12.65-.01-6.48 4.38-12.48 12.07-12.48zm37.33-4.94c-10.74 0-17.28 8.45-17.28 17.52s6.54 17.52 17.28 17.52 17.28-8.45 17.28-17.52-6.54-17.52-17.28-17.52zm0 30.13c-7.11 0-11.51-6.11-11.51-12.61S180.09 209 187.2 209s11.51 6.11 11.51 12.61-4.39 12.58-11.51 12.58zm42.59-5.54l-13.23-23.78h-6.01v33.43h5.49v-23.78l13.22 23.78h6.02v-33.43h-5.49v23.78zm13.22 9.65h5.49v-12.99h13.8v-4.92h-13.8v-10.6h13.8v-4.92h-19.29v33.43zm29.65-7.41a3.84 3.84 0 1 0 3.87 3.87 3.84 3.84 0 0 0-3.87-3.87zm10.98 7.41h19.29v-4.92h-13.8v-9.22h13.8v-4.92h-13.8v-9.45h13.8v-4.92h-19.29v33.43zm45.12-33.43v22.25c0 3.82-2.58 7.07-6.59 7.07s-6.49-3.25-6.49-7.07v-22.25h-5.49v22.25a12 12 0 0 0 24.06 0v-22.25z"/><g class="cls-3"><path class="cls-4" d="M186.14-2.51h123.68v161.3H186.14z"/></g><path class="cls-5" d="M259.6 72.5c-27.25-7-34-10.36-34-20.72v-.45c0-7.66 7-16 20.27-16s27 3.6 41 13.29l9.24-13.4c-23.42-13.59-34.33-16.38-48.91-16.46-18.4-.1-39.14 12.13-39.55 33.88s19.56 30.5 44.19 35.2c19.31 4.4 40.55 11.5 40.55 33.84 0 5.78 1 32-41.53 32.14-20.86.09-40.86-10.91-55.86-22.14l-10.2 12.21a100.32 100.32 0 0 0 66.89 25.22c34 0 57.88-17.57 57.88-48.87v-.45c.03-27.47-17.99-38.95-49.97-47.29z"/><path class="cls-2" d="M260 71.06c-27.35-7-32.89-10.25-32.89-19.27v-.45c0-7 6.58-14.5 18.78-14.5 14.37 0 27.5 4.26 40.14 13l1.23.85 11-16 8.64-12.53-1.08-.87C288.94 7.83 268.92 1 246.29 1c-15.76 0-30.21 5.58-40.7 15.7a52.08 52.08 0 0 0-16 37.81v.45c0 33.36 23.13 41.92 53.37 49.64 26.38 6.76 30.63 11 30.63 18.6v.45c0 8.37-7.94 13.37-21.25 13.37-15.92 0-30.58-6-46.12-18.8l-1.14-.94-12.26 14.68L182.76 144l1.08 1a101.66 101.66 0 0 0 67.88 25.6c17.4 0 32.14-4.51 42.63-13 11-8.9 16.74-21.81 16.74-37.33v-.45c0-29.42-20.44-40.77-51.09-48.76zm-54.5 50.37c15.68 12.65 30.61 18.57 46.87 18.57 15 0 24.24-6.27 24.24-16.35v-.45c0-10.25-7.07-14.87-32.88-21.49-29.94-7.71-51.13-15.5-51.13-46.77v-.45C192.6 25.68 215.68 4 246.29 4c21.45 0 40.46 6.34 56.53 18.85l-7.19 10.43c-21.94-12.61-32.94-15.53-45.84-15.92h-2.63a45.44 45.44 0 0 0-27.44 9.05c-6.07 4.64-13.36 13-13.61 26.29-.46 24.76 24 32.61 45.35 36.68 20.46 4.66 39.39 11.81 39.39 32.38v.38c.06 20-13.41 30.15-40 30.27-20.53.07-40.31-11.11-53.65-20.91zm102.6-1.19c0 29.22-21.6 47.38-56.38 47.38a98.75 98.75 0 0 1-64.81-23.89l8.36-10a144.93 144.93 0 0 0 14.4 9.42q1.76 1 3.52 1.92h.07q1.73.91 3.45 1.74l.11.05q1.7.81 3.39 1.55l.14.06q1.67.72 3.33 1.38l.19.07c1.09.42 2.18.83 3.26 1.2l.22.07c1.07.37 2.14.71 3.2 1l.29.08c1 .31 2.08.59 3.11.85l.34.08c1 .25 2 .48 3 .69l.42.08c1 .19 2 .37 2.93.52l.55.07c.93.13 1.85.26 2.77.36l.77.06c.84.08 1.68.15 2.52.2h3.53c19.67-.08 43.11-5.92 43-33.26v-.37c0-10.49-4.61-18.87-13.7-24.89-8.15-5.4-18.73-8.29-28.06-10.41-30-5.73-43.3-16.13-43-33.71.3-16 14.5-32.41 37.77-32.41h1.63c12.87.23 23.5 2.87 45.41 15.45l-7.47 10.84c-12.77-8.55-26.07-12.71-40.6-12.71-14.13 0-21.76 9-21.76 17.48v.45c0 12.08 9.11 15.5 35.13 22.16 30.17 7.86 48.88 18.28 48.88 45.85z"/><path class="cls-6" d="M184.84 143.9a97.91 97.91 0 0 0 14.87 10.94l18.83-26.08a105.75 105.75 0 0 1-13.2-9.41z"/><path class="cls-2" d="M200.11 156.82l-1.18-.71A99.61 99.61 0 0 1 183.84 145l-1.08-1 22.37-26.8 1.14.94a103.58 103.58 0 0 0 13 9.28l1.4.83zm-13.2-13.08a96.63 96.63 0 0 0 12.39 9.11l17.08-23.65a106.73 106.73 0 0 1-10.85-7.75z"/><path class="cls-5" d="M84.78 74.06a12.12 12.12 0 1 0 12.11 12.11 12.13 12.13 0 0 0-12.11-12.11z"/><path class="cls-2" d="M84.78 71.07a15.1 15.1 0 1 0 15.1 15.1 15.12 15.12 0 0 0-15.1-15.1zm0 27.22a12.12 12.12 0 1 1 12.11-12.12 12.13 12.13 0 0 1-12.11 12.12z"/><g class="cls-7"><path class="cls-4" d="M-3.48-2.32h154.71v176.98H-3.48z"/></g><path class="cls-8" d="M124 123q-16.37 13.25-38.86 13.25t-36.3-13.7Q35 108.89 34.9 85.62 34.9 63.9 48.66 50T84.9 36A61.58 61.58 0 0 1 124 49.31L135.25 37c-15.2-11.66-31.89-18.16-51.56-18.16-20.07.1-35.47 8-47.74 20.17S17.54 66.68 17.54 85.63q.15 30.46 18.63 48.39t48.58 17.93c20.07 0 36.1-4.76 50.71-16.33l-.17-.21z"/><path class="cls-2" d="M124.14 121l-1.09.88c-10.59 8.57-23.35 12.92-37.92 12.92s-26.38-4.46-35.25-13.26-13.41-20.9-13.48-35.92c0-14 4.48-25.64 13.32-34.59S70.39 37.52 84.9 37.44a60.4 60.4 0 0 1 38.16 13l1.09.85 13.29-14.55 10.94-12-1.15-1C130 8.78 109 1.16 84.9 1.16 61 1.16 40.67 9.38 24.49 25.6S.07 62.08 0 85.84c0 24.28 8.22 44.77 24.44 60.91S61 171.11 84.9 171.18c24.17 0 45.14-7.62 62.34-22.64l1.15-1L127 124.09zm-.34-73.69a63.29 63.29 0 0 0-38.9-12.85c-15.34.08-27.89 4.95-37.3 14.47S33.41 70.8 33.41 85.62c.07 15.85 4.91 28.65 14.36 38s22 14.13 37.35 14.13c14.77 0 27.79-4.28 38.7-12.71l9.46 10.36c-13.65 10.39-28.69 15-48.52 15-19.58 0-35.57-5.89-47.55-17.51S19.13 105.42 19 85.63c0-18.45 6-33.78 18-45.58C50.33 26.86 65.6 20.4 83.69 20.32c17.92 0 34.08 5.52 49.35 16.87zM84.9 168.2c-23.09-.07-42.72-8-58.36-23.56S3 109.3 3 85.84c.07-22.94 8-42.5 23.62-58.14S61.81 4.15 84.9 4.15c22.81 0 42.72 7 59.22 20.91L135.05 35c-15.88-11.86-32.69-17.65-51.37-17.65-18.91.09-34.87 6.83-48.78 20.6-12.51 12.36-18.85 28.41-18.85 47.69.1 20.63 6.52 37.26 19.08 49.45s29.24 18.35 49.62 18.35c20.63 0 36.28-4.9 50.53-15.82l8.83 9.67c-16.41 13.87-36.33 20.91-59.21 20.91z"/><g class="cls-9"><path class="cls-4" d="M354.95-2.59h111.26v161.43H354.95z"/></g><path class="cls-10" d="M428.47 72.48c-27.27-7-34-10.37-34-20.74v-.45c0-7.66 7-16 20.29-16a68 68 0 0 1 24.73 4.58l9.66-13.18c-13.41-6.36-22.23-7.92-33.06-8-18.42-.1-39.18 12.14-39.58 33.91S396 83.13 420.68 87.84c19.32 4.4 40.59 11.51 40.59 33.86 0 5.78 1 32-41.57 32.16-20.88.09-40.89-10.92-55.85-22.16l-10.2 12.22a100.4 100.4 0 0 0 66.94 25.24c34 0 57.92-17.58 57.92-48.91v-.45c0-27.49-18.03-38.98-50.04-47.32z"/><path class="cls-11" d="M459.25 12.91l-19.79 27a77.36 77.36 0 0 1 16.31 8.73L465 35.18l8.77-12.72a91 91 0 0 0-14.52-9.55z"/><path class="cls-2" d="M428.85 71c-27.38-7-32.91-10.26-32.91-19.29v-.45c0-7 6.59-14.51 18.79-14.51a67 67 0 0 1 24.19 4.48l.57.22a76.62 76.62 0 0 1 15.44 8.34l1.23.85 11-15.89 8.7-12.62-1.08-.87a92.87 92.87 0 0 0-13.29-8.87l-1-.55-.46-.26-1.23-.58A95.09 95.09 0 0 0 415.15.89c-15.77 0-30.23 5.58-40.73 15.72a52.12 52.12 0 0 0-16 37.84v.45c0 33.39 23.15 42 53.41 49.68 26.4 6.77 30.66 11 30.66 18.61v.45c0 8.38-8 13.38-21.27 13.38-15.94 0-30.6-6-46.16-18.82l-1.14-.94-11.26 13.48-1 1.18-10.15 12.15 1.08 1a101.75 101.75 0 0 0 67.94 25.62c17.41 0 32.17-4.51 42.67-13 11-8.91 16.75-21.82 16.75-37.36v-.45C480 90.39 459.55 79 428.85 71zm33.89-35.22l-7.38 10.69a79.62 79.62 0 0 0-13.58-7.33l17.88-24.36a90 90 0 0 1 12.07 7.92zm-88.41 85.63C390 134.11 405 140 421.23 140c15 0 24.26-6.27 24.26-16.37v-.45c0-10.26-7.07-14.88-32.9-21.51-30-7.65-51.17-15.48-51.17-46.79v-.45c0-28.83 23.1-50.57 53.73-50.57A92.24 92.24 0 0 1 457 13.43l-8.34 11.39-.76-.34-1.19-.54-1.28-.55-1.16-.49-1.27-.5-1.11-.4-1.16-.43-1.1-.4-1.11-.38-1.08-.36-1.05-.32-1.07-.32-1-.27-1.08-.28-.92-.22-1.1-.25-.85-.17-1.12-.22-.77-.13-1.15-.25-.68-.1-1.23-.17-.58-.06-1.31-.14h-.42l-1.46-.12h-.18c-1.79-.11-3.58-.17-5.41-.18h-2.48l-1.24.07a45.5 45.5 0 0 0-23.78 8.92c-6.08 4.65-13.37 13-13.62 26.31-.46 24.78 24 32.64 45.38 36.71 20.48 4.66 39.42 11.81 39.42 32.41v.38c.06 20-13.42 30.17-40.07 30.29h-2.15l-1.28-.06h-.66l-1.18-.1-.75-.06-1.14-.13-.79-.09-1.11-.16-.8-.12-1.09-.19-.81-.14-1.08-.22-.81-.17-1.08-.25-.8-.19-1.08-.28-.79-.21-1.07-.3-.79-.23-1.06-.33-.77-.24-1.07-.36-.75-.26-1.06-.38-.75-.27-1-.4-.73-.29-1-.42-.72-.3-1-.44-.71-.31-1-.46-.7-.32-1-.48-.68-.33-1-.5-.65-.33-1-.52-.63-.33-1-.54-.61-.33-1-.55-.6-.34-1-.56-.58-.34-1-.58-.54-.33-1-.59-.54-.34-1-.6-.51-.33-1-.61-.45-.3-1-.65-.39-.27-1-.68-.35-.24-1-.7-.28-.2-1-.74-1.26-.92zM477 120.26c0 29.25-21.62 47.42-56.43 47.42a98.84 98.84 0 0 1-64.87-23.91l8.37-10c19.44 14.34 38.06 21.61 55.35 21.61h.26c19.69-.08 43.14-5.93 43.06-33.29v-.37c0-10.5-4.61-18.88-13.71-24.91-8.16-5.41-18.75-8.3-28.08-10.42-30.07-5.74-43.34-16.14-43-33.73.27-14.6 12.15-29.58 32-32.07a46.87 46.87 0 0 1 5.85-.37h.2c1.26 0 2.49 0 3.72.09h.4l1.4.08h.59l1.2.1.69.07 1.11.12.75.1L427 21l.8.13 1 .18.82.16 1 .21.86.2 1 .25.88.23 1.06.29.92.27 1.09.34.94.31 1.13.39 1 .35 1.17.44 1 .39 1.23.5 1 .44 1.29.56 1.07.48.45.21-7.91 10.8a70 70 0 0 0-24.19-4.27c-14.14 0-21.78 9-21.78 17.49v.45c0 12.09 9.11 15.51 35.15 22.18C458.3 81.79 477 92.22 477 119.81z"/></svg>